<svg width="20" height="20" viewBox="0 0 20 20" fill="none" xmlns="http://www.w3.org/2000/svg">
<path d="M3.1 1L1 17.3929C1 17.8191 1.15979 18.2279 1.44422 18.5293C1.72865 18.8307 2.11442 19 2.51667 19H17.4833C17.8856 19 18.2713 18.8307 18.5558 18.5293C18.8402 18.2279 19 17.8191 19 17.3929L16.9 1H3.1Z" stroke="#313037" stroke-width="2" stroke-linecap="round" stroke-linejoin="round"/>
<path d="m14.094179,7.56591c0,0.901457 -0.431349,1.766001 -1.199158,2.403427c-0.767809,0.637442 -1.809177,0.995541 -2.895022,0.995541c-1.085845,0 -2.127213,-0.358098 -2.895022,-0.995541c-0.767809,-0.637425 -1.199158,-1.50197 -1.199158,-2.403427" stroke="#313037" stroke-width="2" stroke-linecap="round" stroke-linejoin="round"/>
</svg>
