<svg width="18" height="18" viewBox="0 0 18 18" fill="none" xmlns="http://www.w3.org/2000/svg">
<path d="M5 9C7.20914 9 9 7.20914 9 5C9 2.79086 7.20914 1 5 1C2.79086 1 1 2.79086 1 5C1 7.20914 2.79086 9 5 9Z" stroke="red" stroke-width="2" stroke-linecap="round" stroke-linejoin="round" transform="translate(4,0)"/>
<path d="M17 7V5C17 3.93913 16.5786 2.92172 15.8284 2.17157C15.0783 1.42143 14.0609 1 13 1H5C3.93913 1 2.92172 1.42143 2.17157 2.17157C1.42143 2.92172 1 3.93913 1 5V7" stroke="red" stroke-width="2" stroke-linecap="round" stroke-linejoin="round" transform="translate(0,12)"/>
</svg>
